<svg version="1.1" id="Layer_1" xmlns="http://www.w3.org/2000/svg" xmlns:xlink="http://www.w3.org/1999/xlink" x="0px" y="0px"
	 width="100%" viewBox="0 0 77 77" enable-background="new 0 0 77 77" xml:space="preserve">
<path fill="#F12A31" opacity="1.000000" stroke="none" 
	d="
M78.000000,4.999999 
	C78.000000,6.066787 78.000000,7.133574 77.608215,8.795074 
	C77.088333,20.260538 76.960243,31.131289 76.374016,42.001556 
	C51.332237,42.001472 26.748594,42.001877 2.095032,41.538143 
	C2.296082,28.719334 2.567052,16.364660 2.948607,3.740849 
	C3.374330,3.259092 3.689467,3.046474 4.426713,2.888118 
	C6.593747,2.628690 8.337790,2.047974 10.083735,2.042207 
	C29.650642,1.977580 49.217941,1.975081 68.784798,2.047380 
	C70.513634,2.053768 72.240097,2.704092 73.978027,3.030082 
	C73.988396,3.004830 73.938179,3.021902 74.053986,3.319664 
	C74.775009,3.689931 75.380226,3.762436 76.262619,3.949223 
	C77.026527,4.375669 77.513268,4.687834 78.000000,4.999999 
z"/>
<path fill="#0038A9" opacity="1.000000" stroke="none" 
	d="
M2.164953,42.002281 
	C26.748594,42.001877 51.332237,42.001472 76.447723,42.465080 
	C76.986450,50.818100 76.943069,58.707752 77.045120,66.595528 
	C77.064163,68.067558 77.666725,69.532036 78.000000,71.000000 
	C78.000000,73.254570 78.000000,75.509140 78.000000,78.000000 
	C75.665672,78.000000 73.327568,78.000000 70.309601,77.601791 
	C49.406509,77.137291 29.183290,77.061638 8.960027,77.046837 
	C8.306918,77.046364 7.653353,77.668243 7.000000,78.000000 
	C5.933331,78.000000 4.866662,78.000000 3.417075,77.561897 
	C2.744422,65.416626 2.454688,53.709454 2.164953,42.002281 
z"/>
<path fill="#DBFDD4" opacity="1.000000" stroke="none" 
	d="
M2.095032,41.538143 
	C2.454688,53.709454 2.744422,65.416626 3.017078,77.561897 
	C-0.044625,78.610748 1.034790,76.298630 1.032345,75.029289 
	C0.987985,51.998695 1.000000,28.967993 1.244662,5.375164 
	C1.938890,4.545339 2.388456,4.277664 2.838022,4.009988 
	C2.567052,16.364660 2.296082,28.719334 2.095032,41.538143 
z"/>
<path fill="#DFFDD9" opacity="1.000000" stroke="none" 
	d="
M73.967659,3.055334 
	C72.240097,2.704092 70.513634,2.053768 68.784798,2.047380 
	C49.217941,1.975081 29.650642,1.977580 10.083735,2.042207 
	C8.337790,2.047974 6.593747,2.628690 4.546709,2.655459 
	C4.496399,1.912358 4.748199,1.456179 5.000000,1.000000 
	C27.687561,1.000000 50.375122,1.000000 73.535072,1.342701 
	C73.994194,2.142046 73.980927,2.598690 73.967659,3.055334 
z"/>
<path fill="#FFFFFF" opacity="1.000000" stroke="none" 
	d="
M7.468657,78.000000 
	C7.653353,77.668243 8.306918,77.046364 8.960027,77.046837 
	C29.183290,77.061638 49.406509,77.137291 69.814865,77.601791 
	C49.312439,78.000000 28.624876,78.000000 7.468657,78.000000 
z"/>
<path fill="#FFFFFF" opacity="1.000000" stroke="none" 
	d="
M78.000000,70.531342 
	C77.666725,69.532036 77.064163,68.067558 77.045120,66.595528 
	C76.943069,58.707752 76.986450,50.818100 76.905869,42.465569 
	C76.960243,31.131289 77.088333,20.260538 77.608215,9.194893 
	C78.000000,29.354227 78.000000,49.708454 78.000000,70.531342 
z"/>
<path fill="#FFFFFF" opacity="1.000000" stroke="none" 
	d="
M73.978027,3.030082 
	C73.980927,2.598690 73.994194,2.142046 74.003731,1.342701 
	C76.019302,1.085691 78.895142,0.029514 78.000000,4.500243 
	C77.513268,4.687834 77.026527,4.375669 76.052094,3.757059 
	C75.022324,3.307709 74.480255,3.164806 73.938179,3.021902 
	C73.938179,3.021902 73.988396,3.004830 73.978027,3.030082 
z"/>
<path fill="#FFFFFF" opacity="1.000000" stroke="none" 
	d="
M4.500031,1.000000 
	C4.748199,1.456179 4.496399,1.912358 4.124601,2.601196 
	C3.689467,3.046474 3.374330,3.259092 2.948607,3.740849 
	C2.388456,4.277664 1.938890,4.545339 1.244662,4.906507 
	C1.085271,2.980591 0.029716,0.105544 4.500031,1.000000 
z"/>
<path fill="#DFFDD9" opacity="1.000000" stroke="none" 
	d="
M74.053986,3.319664 
	C74.480255,3.164806 75.022324,3.307709 75.774918,3.642776 
	C75.380226,3.762436 74.775009,3.689931 74.053986,3.319664 
z"/>
</svg>