<svg xmlns="http://www.w3.org/2000/svg" xmlns:xlink="http://www.w3.org/1999/xlink" version="1.1" id="Layer_1" x="0px" y="0px" enable-background="new 0 0 732 276" xml:space="preserve" viewBox="1 1 732 276">
<path fill="#FFFFFF" opacity="1.000000" stroke="none" d=" M475.000000,277.000000   C316.666718,277.000000 158.833405,277.000000 1.000085,277.000000   C1.000057,185.000061 1.000057,93.000122 1.000028,1.000134   C244.999878,1.000089 488.999756,1.000089 732.999756,1.000045   C732.999817,92.999855 732.999817,184.999710 732.999878,276.999786   C647.166687,277.000000 561.333313,277.000000 475.000000,277.000000  M248.776245,236.999878   C262.938446,236.999924 277.100616,237.006943 291.262817,236.996796   C297.540253,236.992294 297.996277,236.519913 297.997772,230.062347   C298.003357,205.735519 298.093872,181.408081 297.930817,157.082336   C297.892365,151.344162 300.418030,147.331528 304.684082,144.094788   C313.156555,137.666519 324.630127,139.014313 332.343262,144.004456   C336.114929,146.444611 338.505249,146.322876 341.642365,142.984024   C352.216614,131.729752 363.087555,120.754257 374.470215,109.028061   C373.175720,108.063705 371.969879,107.198029 370.799988,106.286163   C369.120850,104.977364 367.483734,103.614487 365.801422,102.309830   C346.674500,87.476532 325.521484,81.074524 301.430634,86.806000   C300.511017,87.024788 299.471100,86.871994 298.506470,86.745590   C291.922821,85.882874 285.366425,84.521606 278.758728,84.202621   C269.596161,83.760307 260.396240,84.091476 250.575241,84.091476   C252.932999,76.798950 255.063324,70.209908 257.604553,62.349895   C243.314117,61.882660 229.818832,61.282867 216.317184,61.046436   C203.858490,60.828270 203.856888,61.000454 200.139938,72.572784   C192.082733,97.657883 184.034332,122.745827 175.949463,147.822006   C175.157700,150.277786 174.137878,152.660034 172.900986,155.930237   C163.903442,132.022095 155.305176,109.210052 146.737717,86.386429   C144.395538,80.146896 142.215546,73.845833 139.823135,67.626083   C138.701462,64.710022 137.019119,62.532875 133.212143,62.927162   C129.881073,63.272163 126.722260,62.342773 125.218849,67.149864   C122.262505,76.602730 118.586311,85.841965 114.951530,95.068565   C108.894646,110.443497 102.624832,125.734467 96.474792,141.072861   C95.587563,143.285629 94.867775,145.565536 93.536194,149.321487   C91.495773,146.550461 89.704384,145.006760 89.044266,143.076248   C84.888702,130.923340 80.902176,118.710587 77.018074,106.467392   C72.118614,91.023643 67.370529,75.531876 62.454239,59.730095   C44.214741,59.730095 26.232138,59.730095 7.290766,59.730095   C8.258479,62.117477 8.790626,63.556934 9.417125,64.954079   C12.204289,71.169708 15.257445,77.279465 17.742147,83.612785   C19.514257,88.129761 20.439072,92.971855 21.909096,97.615959   C27.209332,114.360489 32.663746,131.056534 37.905926,147.819061   C46.688583,175.902664 55.314674,204.035355 64.170631,232.095627   C64.656677,233.635696 66.623337,235.800674 67.931686,235.822495   C83.506012,236.082092 99.086205,235.989868 115.045685,235.989868   C120.784660,221.840134 126.818970,206.962219 133.284653,191.020767   C139.313004,206.455612 144.850357,220.665100 150.418243,234.862610   C151.546219,237.738754 153.406799,239.138275 156.828751,239.082321   C169.488632,238.875259 182.157516,238.830368 194.815231,239.095657   C199.015198,239.183670 200.610565,237.252502 201.716125,233.713455   C206.030746,219.901459 210.473526,206.129349 214.898849,192.352112   C222.757492,167.885910 230.625580,143.422729 238.523880,118.969330   C239.645325,115.497345 240.958496,112.087280 242.182922,108.648560   C242.788620,108.751106 243.394302,108.853645 244.000000,108.956192   C244.000000,124.049141 244.000000,139.142090 244.000000,154.235031   C244.000015,180.061447 244.005768,205.887863 243.991653,231.714279   C243.990158,234.449722 243.622345,237.366409 248.776245,236.999878  M588.000000,81.500000   C587.999878,67.503151 588.348145,53.494465 587.873230,39.513748   C587.573303,30.684055 586.053284,29.890169 578.429504,29.966703   C566.100098,30.090473 553.768555,29.999704 541.437927,30.000109   C534.000488,30.000353 534.000122,30.000843 534.000061,37.681980   C533.999817,55.622337 534.000000,73.562698 534.000000,91.581436   C523.454956,89.160156 513.331604,88.312485 502.828583,89.844452   C488.781342,91.893364 476.272919,97.213028 466.033295,106.674988   C446.724121,124.517731 437.198578,146.279922 440.879272,173.212173   C443.576599,192.949600 453.322021,208.496475 468.355164,220.504654   C485.767731,234.413483 506.086823,239.448181 528.101379,234.901596   C548.982666,230.589081 564.867004,218.604858 576.529602,200.932358   C585.425720,187.451981 588.055908,172.319946 588.016296,156.483719   C587.954651,131.822617 588.000000,107.161255 588.000000,81.500000  M691.500000,93.000000   C661.746033,93.000000 631.992065,93.000000 602.000000,93.000000   C602.000000,108.185364 602.174744,122.671997 601.897949,137.149994   C601.810181,141.743683 603.064331,143.253601 607.777893,143.107101   C618.640076,142.769516 629.519958,143.000000 640.957031,143.000000   C627.397461,173.216415 614.139893,202.759964 600.950806,232.150925   C601.416321,232.592621 601.522949,232.782562 601.629944,232.782791   C639.953918,232.862488 678.278137,232.982361 716.600830,232.794250   C718.074280,232.787018 720.502869,229.964828 720.780945,228.187515   C721.245911,225.215820 720.085083,222.031662 720.045898,218.931427   C719.921814,209.100052 719.844482,199.262558 720.068054,189.434692   C720.174072,184.773529 718.603577,182.806747 713.753723,182.928299   C704.093445,183.170441 694.422852,183.013626 684.756653,182.982559   C683.538452,182.978653 682.321106,182.739578 680.391724,182.533432   C694.012451,152.457352 707.369812,122.962761 720.939209,93.000000   C711.066650,93.000000 701.783325,93.000000 691.500000,93.000000  M378.341492,49.186607   C373.786560,64.690308 379.363739,76.223518 393.798828,85.331306   C388.427673,85.603455 384.504883,86.036186 380.596741,85.930008   C377.150604,85.836388 375.934631,86.992165 375.941284,90.521172   C376.029816,137.483139 376.022766,184.445374 375.960266,231.407440   C375.954895,235.432739 377.540405,237.071838 381.578186,237.041885   C396.065704,236.934372 410.556580,236.865479 425.041534,237.085526   C429.139801,237.147797 430.106506,235.668381 430.072968,231.840759   C429.910858,213.357086 429.999969,194.871201 430.000000,176.386108   C430.000000,147.909058 429.878662,119.431007 430.114441,90.955917   C430.155762,85.964424 428.515594,84.402092 423.836090,84.952019   C421.492767,85.227394 419.090332,85.000000 417.191040,85.000000   C420.559479,81.737473 424.219116,78.801849 427.140106,75.257484   C439.284241,60.521694 431.441437,39.856586 415.380371,33.002087   C400.366760,26.594610 384.548218,34.742554 378.341492,49.186607  z"/>
<path fill="#FD7028" opacity="1.000000" stroke="none" d=" M248.305481,236.999329   C243.622345,237.366409 243.990158,234.449722 243.991653,231.714279   C244.005768,205.887863 244.000015,180.061447 244.000000,154.235031   C244.000000,139.142090 244.000000,124.049141 244.000000,108.956192   C243.394302,108.853645 242.788620,108.751106 242.182922,108.648560   C240.958496,112.087280 239.645325,115.497345 238.523880,118.969330   C230.625580,143.422729 222.757492,167.885910 214.898849,192.352112   C210.473526,206.129349 206.030746,219.901459 201.716125,233.713455   C200.610565,237.252502 199.015198,239.183670 194.815231,239.095657   C182.157516,238.830368 169.488632,238.875259 156.828751,239.082321   C153.406799,239.138275 151.546219,237.738754 150.418243,234.862610   C144.850357,220.665100 139.313004,206.455612 133.284653,191.020767   C126.818970,206.962219 120.784660,221.840134 115.045685,235.989868   C99.086205,235.989868 83.506012,236.082092 67.931686,235.822495   C66.623337,235.800674 64.656677,233.635696 64.170631,232.095627   C55.314674,204.035355 46.688583,175.902664 37.905926,147.819061   C32.663746,131.056534 27.209332,114.360489 21.909096,97.615959   C20.439072,92.971855 19.514257,88.129761 17.742147,83.612785   C15.257445,77.279465 12.204289,71.169708 9.417125,64.954079   C8.790626,63.556934 8.258479,62.117477 7.290766,59.730095   C26.232138,59.730095 44.214741,59.730095 62.454239,59.730095   C67.370529,75.531876 72.118614,91.023643 77.018074,106.467392   C80.902176,118.710587 84.888702,130.923340 89.044266,143.076248   C89.704384,145.006760 91.495773,146.550461 93.536194,149.321487   C94.867775,145.565536 95.587563,143.285629 96.474792,141.072861   C102.624832,125.734467 108.894646,110.443497 114.951530,95.068565   C118.586311,85.841965 122.262505,76.602730 125.218849,67.149864   C126.722260,62.342773 129.881073,63.272163 133.212143,62.927162   C137.019119,62.532875 138.701462,64.710022 139.823135,67.626083   C142.215546,73.845833 144.395538,80.146896 146.737717,86.386429   C155.305176,109.210052 163.903442,132.022095 172.900986,155.930237   C174.137878,152.660034 175.157700,150.277786 175.949463,147.822006   C184.034332,122.745827 192.082733,97.657883 200.139938,72.572784   C203.856888,61.000454 203.858490,60.828270 216.317184,61.046436   C229.818832,61.282867 243.314117,61.882660 257.604553,62.349895   C255.063324,70.209908 252.932999,76.798950 250.575241,84.091476   C260.396240,84.091476 269.596161,83.760307 278.758728,84.202621   C285.366425,84.521606 291.922821,85.882874 298.506470,86.745590   C299.471100,86.871994 300.511017,87.024788 301.430634,86.806000   C325.521484,81.074524 346.674500,87.476532 365.801422,102.309830   C367.483734,103.614487 369.120850,104.977364 370.799988,106.286163   C371.969879,107.198029 373.175720,108.063705 374.470215,109.028061   C363.087555,120.754257 352.216614,131.729752 341.642365,142.984024   C338.505249,146.322876 336.114929,146.444611 332.343262,144.004456   C324.630127,139.014313 313.156555,137.666519 304.684082,144.094788   C300.418030,147.331528 297.892365,151.344162 297.930817,157.082336   C298.093872,181.408081 298.003357,205.735519 297.997772,230.062347   C297.996277,236.519913 297.540253,236.992294 291.262817,236.996796   C277.100616,237.006943 262.938446,236.999924 248.305481,236.999329  z"/>
<path fill="#FD7028" opacity="1.000000" stroke="none" d=" M588.000000,82.000000   C588.000000,107.161255 587.954651,131.822617 588.016296,156.483719   C588.055908,172.319946 585.425720,187.451981 576.529602,200.932358   C564.867004,218.604858 548.982666,230.589081 528.101379,234.901596   C506.086823,239.448181 485.767731,234.413483 468.355164,220.504654   C453.322021,208.496475 443.576599,192.949600 440.879272,173.212173   C437.198578,146.279922 446.724121,124.517731 466.033295,106.674988   C476.272919,97.213028 488.781342,91.893364 502.828583,89.844452   C513.331604,88.312485 523.454956,89.160156 534.000000,91.581436   C534.000000,73.562698 533.999817,55.622337 534.000061,37.681980   C534.000122,30.000843 534.000488,30.000353 541.437927,30.000109   C553.768555,29.999704 566.100098,30.090473 578.429504,29.966703   C586.053284,29.890169 587.573303,30.684055 587.873230,39.513748   C588.348145,53.494465 587.999878,67.503151 588.000000,82.000000  M491.400909,157.112137   C490.169098,164.660156 492.316620,171.556274 498.003113,176.170471   C504.823181,181.704483 513.115051,183.070908 521.447876,179.092346   C529.688110,175.158035 533.577576,168.391037 532.978882,159.256256   C532.180237,147.070419 524.731812,140.334778 513.193542,138.999756   C503.912048,137.925827 492.380890,145.729202 491.400909,157.112137  z"/>
<path fill="#FD7028" opacity="1.000000" stroke="none" d=" M692.000000,93.000000   C701.783325,93.000000 711.066650,93.000000 720.939209,93.000000   C707.369812,122.962761 694.012451,152.457352 680.391724,182.533432   C682.321106,182.739578 683.538452,182.978653 684.756653,182.982559   C694.422852,183.013626 704.093445,183.170441 713.753723,182.928299   C718.603577,182.806747 720.174072,184.773529 720.068054,189.434692   C719.844482,199.262558 719.921814,209.100052 720.045898,218.931427   C720.085083,222.031662 721.245911,225.215820 720.780945,228.187515   C720.502869,229.964828 718.074280,232.787018 716.600830,232.794250   C678.278137,232.982361 639.953918,232.862488 601.629944,232.782791   C601.522949,232.782562 601.416321,232.592621 600.950806,232.150925   C614.139893,202.759964 627.397461,173.216415 640.957031,143.000000   C629.519958,143.000000 618.640076,142.769516 607.777893,143.107101   C603.064331,143.253601 601.810181,141.743683 601.897949,137.149994   C602.174744,122.671997 602.000000,108.185364 602.000000,93.000000   C631.992065,93.000000 661.746033,93.000000 692.000000,93.000000  z"/>
<path fill="#FD7028" opacity="1.000000" stroke="none" d=" M378.602173,48.880421   C384.548218,34.742554 400.366760,26.594610 415.380371,33.002087   C431.441437,39.856586 439.284241,60.521694 427.140106,75.257484   C424.219116,78.801849 420.559479,81.737473 417.191040,85.000000   C419.090332,85.000000 421.492767,85.227394 423.836090,84.952019   C428.515594,84.402092 430.155762,85.964424 430.114441,90.955917   C429.878662,119.431007 430.000000,147.909058 430.000000,176.386108   C429.999969,194.871201 429.910858,213.357086 430.072968,231.840759   C430.106506,235.668381 429.139801,237.147797 425.041534,237.085526   C410.556580,236.865479 396.065704,236.934372 381.578186,237.041885   C377.540405,237.071838 375.954895,235.432739 375.960266,231.407440   C376.022766,184.445374 376.029816,137.483139 375.941284,90.521172   C375.934631,86.992165 377.150604,85.836388 380.596741,85.930008   C384.504883,86.036186 388.427673,85.603455 393.798828,85.331306   C379.363739,76.223518 373.786560,64.690308 378.602173,48.880421  z"/>
<path fill="#FFFFFF" opacity="1.000000" stroke="none" d=" M491.644745,156.761780   C492.380890,145.729202 503.912048,137.925827 513.193542,138.999756   C524.731812,140.334778 532.180237,147.070419 532.978882,159.256256   C533.577576,168.391037 529.688110,175.158035 521.447876,179.092346   C513.115051,183.070908 504.823181,181.704483 498.003113,176.170471   C492.316620,171.556274 490.169098,164.660156 491.644745,156.761780  z"/>
</svg>